<?xml version="1.0" encoding="UTF-8"?>
<svg width="888px" height="649px" viewBox="0 0 888 649" version="1.1" xmlns="http://www.w3.org/2000/svg" xmlns:xlink="http://www.w3.org/1999/xlink">
    <!-- Generator: Sketch 63.1 (92452) - https://sketch.com -->
    <title>Linth</title>
    <desc>Created with Sketch.</desc>
    <defs>
        <linearGradient x1="50%" y1="100%" x2="50%" y2="1.14423775e-15%" id="linearGradient-1">
            <stop stop-color="#FFFFFF" offset="0%"></stop>
            <stop stop-color="#FAD961" offset="100%"></stop>
        </linearGradient>
    </defs>
    <g id="Page-1" stroke="none" stroke-width="1" fill="none" fill-rule="evenodd">
        <g id="Login" transform="translate(-911.000000, -152.000000)" fill-rule="nonzero">
            <g id="Linth" transform="translate(910.000000, 152.000000)">
                <g id="Module" transform="translate(370.799992, 130.139997)">
                    <circle id="Shape" fill="#FF743C" cx="64.7999987" cy="64.7999987" r="64.7999987"></circle>
                    <circle id="Shape" fill="#2D374C" cx="65.1223868" cy="65.1223868" r="38.0417903"></circle>
                    <circle id="Shape" fill="#F0F1F1" cx="65.1223868" cy="65.1223868" r="19.9880593"></circle>
                </g>
                <g id="Module" transform="translate(694.999986, 453.939990) scale(-1, 1) rotate(-180.000000) translate(-694.999986, -453.939990) translate(629.999986, 388.939990)">
                    <circle id="Shape" fill="#FF743C" cx="64.7999987" cy="64.7999987" r="64.7999987"></circle>
                    <circle id="Shape" fill="#2D374C" cx="65.1223868" cy="65.1223868" r="38.0417903"></circle>
                    <circle id="Shape" fill="#F0F1F1" cx="65.1223868" cy="65.1223868" r="19.9880593"></circle>
                </g>
                <g id="Module" transform="translate(695.287984, 194.951997) scale(-1, 1) translate(-695.287984, -194.951997) translate(643.287984, 142.451997)">
                    <rect id="Shape" fill="#F0F1F1" x="19.2123239" y="19.5307515" width="66.2329225" height="66.2329225"></rect>
                    <polygon id="Shape" fill="#2D3652" transform="translate(52.813627, 52.813627) rotate(-315.000000) translate(-52.813627, -52.813627) " points="32.6246828 32.6246828 73.0025714 32.6246828 73.0025714 73.0025714 32.6246828 73.0025714"></polygon>
                    <path d="M0.106673217,0.106673217 L39.2732572,0.106673217 C39.2732572,21.7377803 21.7377803,39.2732572 0.106673217,39.2732572 L0.106673217,0.106673217 Z" id="Shape" fill="#D5E155"></path>
                    <path d="M0.106673217,104.869325 L0.106673217,65.7027407 C21.7377803,65.7027407 39.2732572,83.2382177 39.2732572,104.869325 L0.106673217,104.869325 Z" id="Shape" fill="#D5E155"></path>
                    <path d="M103.914042,104.869325 L64.7474582,104.869325 C64.7474582,83.2382177 82.2829351,65.7027407 103.914042,65.7027407 L103.914042,104.869325 Z" id="Shape" fill="#D5E155"></path>
                    <path d="M103.914042,0.106673217 L103.914042,39.2732572 C82.2829351,39.2732572 64.7474582,21.7377803 64.7474582,0.106673217 L103.914042,0.106673217 Z" id="Shape" fill="#D5E155"></path>
                </g>
                <g id="Module" transform="translate(565.399989, 65.139997) scale(-1, 1) rotate(-180.000000) translate(-565.399989, -65.139997) translate(500.399989, 0.139997)">
                    <g id="Shape" transform="translate(0.000000, 0.000000)">
                        <path d="M64.7999987,5.57553992e-15 C100.58805,5.57553992e-15 129.599997,29.0119476 129.599997,64.7999987 C129.599997,100.58805 100.58805,129.599997 64.7999987,129.599997 L-1.53477228e-14,129.599997 L-1.53477228e-14,64.7999987 C-1.53477228e-14,29.0119476 29.0119476,5.57553992e-15 64.7999987,5.57553992e-15 Z" fill="#F0F1F1"></path>
                        <path d="M38.749748,52.1005015 C60.1506428,52.1005015 77.4994959,69.4493546 77.4994959,90.8502495 C77.4994959,112.251144 60.1506428,129.599997 38.749748,129.599997 L0,129.599997 L0,90.8502495 C0,69.4493546 17.3488531,52.1005015 38.749748,52.1005015 Z" fill="#2D374C"></path>
                        <path d="M64.7999987,24.5849241 C86.6504922,24.5849241 104.363817,42.2982489 104.363817,64.1487424 C104.363817,85.9992359 86.6504922,103.712561 64.7999987,103.712561 C42.9495052,103.712561 25.2361804,85.9992359 25.2361804,64.1487424 C25.2361804,42.2982489 42.9495052,24.5849241 64.7999987,24.5849241 Z" fill="#6ED47C"></path>
                        <path d="M64.7999987,40.9884414 C77.5910798,40.9884414 87.9602998,51.3576614 87.9602998,64.1487424 C87.9602998,76.9398235 77.5910798,87.3090435 64.7999987,87.3090435 C52.0089176,87.3090435 41.6396977,76.9398235 41.6396977,64.1487424 C41.6396977,51.3576614 52.0089176,40.9884414 64.7999987,40.9884414 Z" fill="#2D374C"></path>
                    </g>
                </g>
                <g id="Module" transform="translate(824.150030, 65.540000) scale(-1, 1) rotate(-270.000000) translate(-824.150030, -65.540000) translate(759.150030, 0.540000)">
                    <g id="Shape">
                        <path d="M65.1256268,5.57553992e-15 L129.599997,5.57553992e-15 L129.599997,64.4743706 C129.599997,100.442261 100.442261,129.599997 64.4743706,129.599997 L-1.53477228e-14,129.599997 L-1.53477228e-14,65.1256268 C-1.53477228e-14,29.1577363 29.1577363,5.57553992e-15 65.1256268,5.57553992e-15 Z" fill="#D5E155"></path>
                        <path d="M64.7999987,28.0040195 C85.8412147,28.0040195 102.89849,45.0612953 102.89849,66.1025112 C102.89849,87.1437272 85.8412147,104.201003 64.7999987,104.201003 L26.701507,104.201003 L26.701507,66.1025112 C26.701507,45.0612953 43.7587828,28.0040195 64.7999987,28.0040195 Z" fill="#2D374C"></path>
                        <path d="M104.005626,0 L129.925626,0 L129.925626,25.9199995 C129.925626,47.3928301 112.518457,64.7999987 91.0456263,64.7999987 L65.1256268,64.7999987 L65.1256268,38.8799992 C65.1256268,17.4071686 82.5327954,0 104.005626,0 Z" fill="#FF743C"></path>
                    </g>
                </g>
                <g id="Module" transform="translate(111.599997, 259.739995)">
                    <ellipse id="Shape" fill="#F0F1F1" cx="64.9592125" cy="64.6403928" rx="54.4511046" ry="54.4256147"></ellipse>
                    <path d="M129.599997,0 C129.599997,35.6117553 100.801897,64.4807869 65.27764,64.4807869 C65.27764,28.8690316 94.0757403,0 129.599997,0 Z" id="Shape" fill="#006D4E"></path>
                    <path d="M62.523491,0.0792147259 L64.4015722,0.0792147259 L64.4015722,1.95268145 C64.4015722,36.4422514 36.3733861,64.4015722 1.79886645,64.4015722 L-0.0792147259,64.4015722 L-0.0792147259,62.5281054 C-0.0792147259,28.0385355 27.9489713,0.0792147259 62.523491,0.0792147259 Z" id="Shape" fill="#6ED47C" transform="translate(32.161179, 32.240393) rotate(-270.000000) translate(-32.161179, -32.240393) "></path>
                    <path d="M62.4488907,65.1192105 L64.3223574,65.1192105 L64.3223574,66.9972917 C64.3223574,101.571811 36.3630367,129.599997 1.87346672,129.599997 L0,129.599997 L0,127.721916 C0,93.1473966 27.9593207,65.1192105 62.4488907,65.1192105 Z" id="Shape" fill="#006D4E"></path>
                    <path d="M127.801131,65.1984253 L129.679212,65.1984253 L129.679212,67.071892 C129.679212,101.561462 101.651026,129.520783 67.0765064,129.520783 L65.1984253,129.520783 L65.1984253,127.647316 C65.1984253,93.157746 93.2266113,65.1984253 127.801131,65.1984253 Z" id="Shape" fill="#6ED47C" transform="translate(97.438819, 97.359604) rotate(-270.000000) translate(-97.438819, -97.359604) "></path>
                </g>
                <g id="Module" transform="translate(500.399989, 259.739995)">
                    <circle id="Shape" fill="#F0F1F1" cx="64.8191044" cy="64.4951044" r="54.4511046"></circle>
                    <path d="M62.9126201,129.599997 C28.1669395,129.599997 0,101.433058 0,66.6873773 L0,64.7999987 L1.8873786,64.7999987 C36.6330593,64.7999987 64.7999987,92.9669382 64.7999987,127.712619 L64.7999987,129.599997 L62.9126201,129.599997 Z" id="Shape" fill="#006D4E"></path>
                    <path d="M127.712619,64.7999987 L129.599997,64.7999987 L129.599997,66.6873773 C129.599997,101.433058 101.433058,129.599997 66.6873773,129.599997 L64.7999987,129.599997 L64.7999987,127.712619 C64.7999987,92.9669382 92.9669382,64.7999987 127.712619,64.7999987 Z" id="Shape" fill="#6ED47C"></path>
                    <path d="M66.6873773,64.7999987 L64.7999987,64.7999987 L64.7999987,62.9126201 C64.7999987,28.1669395 92.9669382,0 127.712619,0 L129.599997,0 L129.599997,1.8873786 C129.599997,36.6330593 101.433058,64.7999987 66.6873773,64.7999987 Z" id="Shape" fill="#006D4E"></path>
                    <path d="M1.8873786,0 C36.6330593,0 64.7999987,28.1669395 64.7999987,62.9126201 L64.7999987,64.7999987 L62.9126201,64.7999987 C28.1669395,64.7999987 0,36.6330593 0,1.8873786 L0,0 L1.8873786,0 Z" id="Shape" fill="#6ED47C"></path>
                </g>
                <g id="Module" transform="translate(306.199994, 453.939990) rotate(-90.000000) translate(-306.199994, -453.939990) translate(241.199994, 388.939990)">
                    <path d="M97.5980325,65.7552812 C115.184298,65.7552812 129.440784,80.0117666 129.440784,97.5980325 C129.440784,115.184298 115.184298,129.440784 97.5980325,129.440784 C80.0117666,129.440784 65.7552812,115.184298 65.7552812,97.5980325 C65.7552812,80.0117666 80.0117666,65.7552812 97.5980325,65.7552812 Z" id="Shape" fill="#006D4E"></path>
                    <path d="M97.5980325,0.159213756 C115.184298,0.159213756 129.440784,14.4156991 129.440784,32.001965 C129.440784,49.5882309 115.184298,63.8447162 97.5980325,63.8447162 C80.0117666,63.8447162 65.7552812,49.5882309 65.7552812,32.001965 C65.7552812,14.4156991 80.0117666,0.159213756 97.5980325,0.159213756 Z" id="Shape" fill="#FF743C"></path>
                    <path d="M33.275675,65.7552812 C50.8619409,65.7552812 65.1184262,80.0117666 65.1184262,97.5980325 C65.1184262,115.184298 50.8619409,129.440784 33.275675,129.440784 C15.6894091,129.440784 1.4329238,115.184298 1.4329238,97.5980325 C1.4329238,80.0117666 15.6894091,65.7552812 33.275675,65.7552812 Z" id="Shape" fill="#FF743C"></path>
                    <path d="M0,0 L32.4796062,0 C50.4175974,0 64.9592125,14.6128975 64.9592125,32.63882 C64.9592125,50.6647425 50.4175974,65.27764 32.4796062,65.27764 C14.541615,65.27764 0,50.6647425 0,32.63882 L0,0 Z" id="Shape" fill="#6ED47C"></path>
                </g>
                <g id="Module" transform="translate(436.087989, 454.127990) rotate(-180.000000) translate(-436.087989, -454.127990) translate(384.087989, 401.627990)">
                    <rect id="Shape" fill="#F0F1F1" x="19.2123239" y="19.5307515" width="66.2329225" height="66.2329225"></rect>
                    <polygon id="Shape" fill="#2D3652" transform="translate(52.813627, 52.813627) rotate(-315.000000) translate(-52.813627, -52.813627) " points="32.6246828 32.6246828 73.0025714 32.6246828 73.0025714 73.0025714 32.6246828 73.0025714"></polygon>
                    <path d="M0.106673217,0.106673217 L39.2732572,0.106673217 C39.2732572,21.7377803 21.7377803,39.2732572 0.106673217,39.2732572 L0.106673217,0.106673217 Z" id="Shape" fill="#FFC700"></path>
                    <path d="M0.106673217,104.869325 L0.106673217,65.7027407 C21.7377803,65.7027407 39.2732572,83.2382177 39.2732572,104.869325 L0.106673217,104.869325 Z" id="Shape" fill="#FFC700"></path>
                    <path d="M103.914042,104.869325 L64.7474582,104.869325 C64.7474582,83.2382177 82.2829351,65.7027407 103.914042,65.7027407 L103.914042,104.869325 Z" id="Shape" fill="#FFC700"></path>
                    <path d="M103.914042,0.106673217 L103.914042,39.2732572 C82.2829351,39.2732572 64.7474582,21.7377803 64.7474582,0.106673217 L103.914042,0.106673217 Z" id="Shape" fill="#FFC700"></path>
                </g>
                <g id="Module" transform="translate(46.955997, 194.771995) rotate(-180.000000) translate(-46.955997, -194.771995) translate(0.455997, 148.271995)">
                    <g id="Shape">
                        <polygon fill="#FF743C" transform="translate(46.214923, 46.263197) rotate(45.000000) translate(-46.214923, -46.263197) " points="13.6866835 13.7349573 78.7194291 13.7586904 78.7431622 78.791436 13.7104165 78.767703"></polygon>
                        <polygon fill="#F0F1F1" transform="translate(46.214923, 46.263197) rotate(45.000000) translate(-46.214923, -46.263197) " points="29.8357985 29.8840723 62.5820968 29.8960227 62.5940472 62.642321 29.8477489 62.6303706"></polygon>
                    </g>
                </g>
                <g id="Module" transform="translate(435.107989, 64.699998) rotate(-180.000000) translate(-435.107989, -64.699998) translate(388.607989, 18.699998)">
                    <g id="Shape">
                        <rect fill="#FFC700" x="52.1949336" y="50.8956774" width="40.3778886" height="40.3778886"></rect>
                        <rect fill="#FFC700" x="52.1949336" y="0.0976884403" width="40.3778886" height="40.3778886"></rect>
                        <rect fill="#FFC700" x="0.0944321589" y="50.8956774" width="40.3778886" height="40.3778886"></rect>
                        <rect fill="#FFC700" x="0.0944321589" y="0.0976884403" width="40.3778886" height="40.3778886"></rect>
                        <rect fill="#2D374C" x="63.2662902" y="61.9670339" width="18.8864318" height="18.8864318"></rect>
                        <rect fill="#2D374C" x="63.2662902" y="11.169045" width="18.8864318" height="18.8864318"></rect>
                        <rect fill="#2D374C" x="11.1657887" y="61.9670339" width="18.8864318" height="18.8864318"></rect>
                        <rect fill="#2D374C" x="11.1657887" y="11.169045" width="18.8864318" height="18.8864318"></rect>
                    </g>
                </g>
                <g id="Module" transform="translate(306.479992, 324.371993) rotate(-180.000000) translate(-306.479992, -324.371993) translate(259.979992, 277.871993)">
                    <g id="Shape" transform="translate(0.000000, -0.000000)">
                        <polygon fill="#2D374C" transform="translate(46.215317, 46.263593) rotate(45.000000) translate(-46.215317, -46.263593) " points="13.6868785 13.7351546 78.7200226 13.7588878 78.7437558 78.7920319 13.7106117 78.7682987"></polygon>
                        <polygon fill="#F0F1F1" points="29.8480429 29.8843686 62.5825914 29.8843686 62.5825914 62.642818 29.8480429 62.642818"></polygon>
                    </g>
                </g>
                <g id="Module" transform="translate(435.799992, 583.539987) rotate(-90.000000) translate(-435.799992, -583.539987) translate(370.799992, 518.539987)">
                    <g id="Shape">
                        <path d="M65.1256268,5.57553992e-15 L129.599997,5.57553992e-15 L129.599997,64.4743706 C129.599997,100.442261 100.442261,129.599997 64.4743706,129.599997 L-1.53477228e-14,129.599997 L-1.53477228e-14,65.1256268 C-1.53477228e-14,29.1577363 29.1577363,5.57553992e-15 65.1256268,5.57553992e-15 Z" fill="#D5E155"></path>
                        <path d="M64.7999987,28.0040195 C85.8412147,28.0040195 102.89849,45.0612953 102.89849,66.1025112 C102.89849,87.1437272 85.8412147,104.201003 64.7999987,104.201003 L26.701507,104.201003 L26.701507,66.1025112 C26.701507,45.0612953 43.7587828,28.0040195 64.7999987,28.0040195 Z" fill="#2D374C"></path>
                        <path d="M104.005626,0 L129.925626,0 L129.925626,25.9199995 C129.925626,47.3928301 112.518457,64.7999987 91.0456263,64.7999987 L65.1256268,64.7999987 L65.1256268,38.8799992 C65.1256268,17.4071686 82.5327954,0 104.005626,0 Z" fill="#FF743C"></path>
                    </g>
                </g>
                <g id="Module" transform="translate(241.199994, 130.139997)">
                    <polygon id="Shape" fill="#FF743C" points="32.0759994 2.906475e-14 97.5239981 2.906475e-14 64.7999987 32.7239993"></polygon>
                    <polygon id="Shape" fill="#6ED47C" points="129.599997 3.68345347e-13 129.599997 129.599997 0 129.599997"></polygon>
                    <polygon id="Shape" fill="#F0F1F1" points="0 3.03117525e-13 129.599997 129.599997 0 129.599997"></polygon>
                </g>
                <g id="Module" transform="translate(500.723989, 518.939990)">
                    <polygon id="Shape" fill="#FF743C" points="32.0759994 0 97.5239981 0 64.7999987 32.7239993"></polygon>
                    <polygon id="Shape" fill="#6ED47C" points="129.599997 3.68345347e-13 129.599997 129.599997 0 129.599997"></polygon>
                    <polygon id="Shape" fill="#F0F1F1" points="0 2.45563565e-13 129.599997 129.599997 0 129.599997"></polygon>
                </g>
            </g>
        </g>
    </g>
</svg>