<?xml version="1.0" encoding="UTF-8"?>
<svg width="189px" height="39px" viewBox="0 0 189 39" version="1.1" xmlns="http://www.w3.org/2000/svg" xmlns:xlink="http://www.w3.org/1999/xlink">
    <!-- Generator: Sketch 63.1 (92452) - https://sketch.com -->
    <title>logo</title>
    <desc>Created with Sketch.</desc>
    <g id="Page-1" stroke="none" stroke-width="1" fill="none" fill-rule="evenodd">
        <g id="1" transform="translate(-251.000000, -25.000000)">
            <g id="logo" transform="translate(250.000000, 24.000000)">
                <path d="M13.68,39.432 C15.048,39.432 16.218,39.366 17.19,39.234 C18.162,39.102 19.014,38.91 19.746,38.658 C20.478,38.406 21.132,38.094 21.708,37.722 C22.284,37.35 22.884,36.936 23.508,36.48 C23.628,36.432 23.688,36.312 23.688,36.12 L23.688,36.12 L23.688,32.808 C23.688,32.352 23.7,31.962 23.724,31.638 C23.748,31.314 23.826,31.044 23.958,30.828 C24.09,30.612 24.3,30.444 24.588,30.324 C24.876,30.204 25.284,30.12 25.812,30.072 C25.956,30.048 26.064,29.982 26.136,29.874 C26.208,29.766 26.244,29.652 26.244,29.532 C26.244,29.388 26.214,29.262 26.154,29.154 C26.094,29.046 26.004,28.992 25.884,28.992 C25.404,28.992 24.978,29.004 24.606,29.028 C24.234,29.052 23.886,29.07 23.562,29.082 C23.238,29.094 22.926,29.112 22.626,29.136 C22.326,29.16 22.008,29.172 21.672,29.172 C20.976,29.172 20.178,29.142 19.278,29.082 C18.378,29.022 17.508,28.992 16.668,28.992 C16.524,28.992 16.422,29.046 16.362,29.154 C16.302,29.262 16.272,29.388 16.272,29.532 C16.272,29.652 16.308,29.772 16.38,29.892 C16.452,30.012 16.572,30.072 16.74,30.072 C17.46,30.144 18.048,30.222 18.504,30.306 C18.96,30.39 19.32,30.54 19.584,30.756 C19.848,30.972 20.028,31.284 20.124,31.692 C20.22,32.1 20.268,32.664 20.268,33.384 C20.268,34.296 20.118,35.046 19.818,35.634 C19.518,36.222 19.098,36.684 18.558,37.02 C18.018,37.356 17.364,37.59 16.596,37.722 C15.828,37.854 14.976,37.92 14.04,37.92 C12.744,37.92 11.604,37.644 10.62,37.092 C9.636,36.54 8.802,35.754 8.118,34.734 C7.434,33.714 6.918,32.49 6.57,31.062 C6.222,29.634 6.048,28.044 6.048,26.292 C6.048,25.044 6.198,23.784 6.498,22.512 C6.798,21.24 7.266,20.1 7.902,19.092 C8.538,18.084 9.354,17.262 10.35,16.626 C11.346,15.99 12.54,15.672 13.932,15.672 C16.188,15.672 18.042,16.23 19.494,17.346 C20.946,18.462 21.84,20.064 22.176,22.152 C22.2,22.296 22.284,22.398 22.428,22.458 C22.572,22.518 22.716,22.536 22.86,22.512 C23.004,22.488 23.136,22.428 23.256,22.332 C23.376,22.236 23.436,22.128 23.436,22.008 C23.316,20.832 23.226,19.68 23.166,18.552 C23.106,17.424 23.184,16.404 23.4,15.492 C23.424,15.396 23.388,15.318 23.292,15.258 C23.196,15.198 23.082,15.162 22.95,15.15 C22.818,15.138 22.686,15.156 22.554,15.204 C22.422,15.252 22.344,15.336 22.32,15.456 C22.152,15.936 21.9,16.152 21.564,16.104 C21.228,16.056 20.808,15.912 20.304,15.672 C19.416,15.24 18.45,14.868 17.406,14.556 C16.362,14.244 15.264,14.088 14.112,14.088 C12.288,14.088 10.602,14.37 9.054,14.934 C7.506,15.498 6.168,16.32 5.04,17.4 C3.912,18.48 3.03,19.818 2.394,21.414 C1.758,23.01 1.44,24.828 1.44,26.868 C1.44,28.86 1.71,30.636 2.25,32.196 C2.79,33.756 3.576,35.07 4.608,36.138 C5.64,37.206 6.918,38.022 8.442,38.586 C9.966,39.15 11.712,39.432 13.68,39.432 Z M46.656,39.648 C47.112,39.648 47.574,39.582 48.042,39.45 C48.51,39.318 48.93,39.114 49.302,38.838 C49.674,38.562 49.992,38.208 50.256,37.776 C50.52,37.344 50.688,36.828 50.76,36.228 C50.784,36.108 50.742,35.994 50.634,35.886 C50.526,35.778 50.406,35.706 50.274,35.67 C50.142,35.634 50.004,35.646 49.86,35.706 C49.716,35.766 49.62,35.892 49.572,36.084 C49.428,36.564 49.224,36.924 48.96,37.164 C48.696,37.404 48.42,37.524 48.132,37.524 C47.844,37.524 47.562,37.398 47.286,37.146 C47.01,36.894 46.812,36.492 46.692,35.94 C46.524,35.22 46.368,34.482 46.224,33.726 C46.08,32.97 45.846,32.232 45.522,31.512 C45.198,30.792 44.73,30.096 44.118,29.424 C43.506,28.752 42.636,28.14 41.508,27.588 C41.34,27.492 41.256,27.396 41.256,27.3 C41.256,27.18 41.34,27.096 41.508,27.048 C42.276,26.88 42.99,26.646 43.65,26.346 C44.31,26.046 44.88,25.656 45.36,25.176 C45.84,24.696 46.218,24.12 46.494,23.448 C46.77,22.776 46.908,21.984 46.908,21.072 C46.908,19.92 46.686,18.936 46.242,18.12 C45.798,17.304 45.21,16.644 44.478,16.14 C43.746,15.636 42.912,15.27 41.976,15.042 C41.04,14.814 40.092,14.7 39.132,14.7 C38.268,14.7 37.362,14.718 36.414,14.754 C35.466,14.79 34.272,14.82 32.832,14.844 C31.968,14.844 31.212,14.82 30.564,14.772 C29.916,14.724 29.184,14.7 28.368,14.7 C28.224,14.7 28.116,14.76 28.044,14.88 C27.972,15 27.936,15.132 27.936,15.276 C27.936,15.42 27.972,15.552 28.044,15.672 C28.116,15.792 28.224,15.852 28.368,15.852 C28.632,15.876 28.908,15.912 29.196,15.96 C29.484,16.008 29.76,16.068 30.024,16.14 C30.456,16.26 30.798,16.476 31.05,16.788 C31.302,17.1 31.488,17.472 31.608,17.904 C31.728,18.336 31.806,18.804 31.842,19.308 C31.878,19.812 31.896,20.328 31.896,20.856 L31.896,20.856 L31.896,34.356 C31.896,35.076 31.854,35.652 31.77,36.084 C31.686,36.516 31.524,36.864 31.284,37.128 C31.044,37.392 30.708,37.584 30.276,37.704 C29.844,37.824 29.292,37.92 28.62,37.992 C28.452,38.016 28.332,38.094 28.26,38.226 C28.188,38.358 28.158,38.496 28.17,38.64 C28.182,38.784 28.224,38.916 28.296,39.036 C28.368,39.156 28.476,39.216 28.62,39.216 C29.46,39.216 30.324,39.168 31.212,39.072 C32.1,38.976 33,38.928 33.912,38.928 C34.776,38.928 35.664,38.976 36.576,39.072 C37.488,39.168 38.544,39.216 39.744,39.216 C39.912,39.216 40.038,39.156 40.122,39.036 C40.206,38.916 40.248,38.784 40.248,38.64 C40.248,38.472 40.206,38.322 40.122,38.19 C40.038,38.058 39.924,37.992 39.78,37.992 C39.132,37.944 38.562,37.86 38.07,37.74 C37.578,37.62 37.164,37.422 36.828,37.146 C36.492,36.87 36.24,36.486 36.072,35.994 C35.904,35.502 35.82,34.848 35.82,34.032 L35.82,34.032 L35.82,29.172 C35.82,28.668 35.964,28.332 36.252,28.164 C36.54,27.996 36.888,27.912 37.296,27.912 C38.52,27.912 39.474,28.248 40.158,28.92 C40.842,29.592 41.4,30.696 41.832,32.232 C41.928,32.592 42.036,33.006 42.156,33.474 C42.276,33.942 42.396,34.422 42.516,34.914 C42.636,35.406 42.762,35.892 42.894,36.372 C43.026,36.852 43.164,37.296 43.308,37.704 C43.524,38.328 43.944,38.808 44.568,39.144 C45.192,39.48 45.888,39.648 46.656,39.648 Z M37.908,26.4 C37.212,26.4 36.69,26.346 36.342,26.238 C35.994,26.13 35.82,25.764 35.82,25.14 L35.82,25.14 L35.82,18.048 C35.82,17.304 35.97,16.812 36.27,16.572 C36.57,16.332 37.188,16.212 38.124,16.212 C38.988,16.212 39.72,16.296 40.32,16.464 C40.92,16.632 41.406,16.914 41.778,17.31 C42.15,17.706 42.42,18.222 42.588,18.858 C42.756,19.494 42.84,20.268 42.84,21.18 C42.84,22.14 42.762,22.95 42.606,23.61 C42.45,24.27 42.18,24.81 41.796,25.23 C41.412,25.65 40.902,25.95 40.266,26.13 C39.63,26.31 38.844,26.4 37.908,26.4 Z M52.812,39.216 C53.508,39.168 54.294,39.12 55.17,39.072 C56.046,39.024 56.94,39 57.852,39 L57.852,39 L70.92,39 C71.28,39 71.508,38.934 71.604,38.802 C71.7,38.67 71.748,38.568 71.748,38.496 C71.724,37.584 71.76,36.69 71.856,35.814 C71.952,34.938 72.06,33.996 72.18,32.988 C72.204,32.868 72.15,32.772 72.018,32.7 C71.886,32.628 71.736,32.592 71.568,32.592 C71.4,32.592 71.244,32.616 71.1,32.664 C70.956,32.712 70.872,32.808 70.848,32.952 C70.752,33.672 70.626,34.266 70.47,34.734 C70.314,35.202 70.116,35.592 69.876,35.904 C69.636,36.216 69.342,36.468 68.994,36.66 C68.646,36.852 68.232,37.032 67.752,37.2 C67.488,37.296 67.104,37.368 66.6,37.416 C66.096,37.464 65.556,37.488 64.98,37.488 C64.524,37.488 64.086,37.47 63.666,37.434 C63.246,37.398 62.868,37.344 62.532,37.272 C62.1,37.176 61.728,37.026 61.416,36.822 C61.104,36.618 60.84,36.342 60.624,35.994 C60.408,35.646 60.246,35.202 60.138,34.662 C60.03,34.122 59.976,33.468 59.976,32.7 L59.976,32.7 L59.976,27.984 C59.976,27.72 60.036,27.546 60.156,27.462 C60.276,27.378 60.396,27.336 60.516,27.336 C61.62,27.336 62.49,27.378 63.126,27.462 C63.762,27.546 64.242,27.702 64.566,27.93 C64.89,28.158 65.106,28.488 65.214,28.92 C65.322,29.352 65.412,29.916 65.484,30.612 C65.508,30.756 65.58,30.858 65.7,30.918 C65.82,30.978 65.952,31.014 66.096,31.026 C66.24,31.038 66.372,31.014 66.492,30.954 C66.612,30.894 66.672,30.804 66.672,30.684 C66.672,29.844 66.636,29.13 66.564,28.542 C66.492,27.954 66.456,27.3 66.456,26.58 C66.456,26.148 66.468,25.77 66.492,25.446 C66.516,25.122 66.54,24.81 66.564,24.51 L66.564,24.51 L66.636,23.61 C66.66,23.31 66.672,22.968 66.672,22.584 C66.672,22.44 66.612,22.332 66.492,22.26 C66.372,22.188 66.24,22.152 66.096,22.152 C65.952,22.152 65.82,22.188 65.7,22.26 C65.58,22.332 65.508,22.44 65.484,22.584 C65.412,23.232 65.322,23.76 65.214,24.168 C65.106,24.576 64.89,24.906 64.566,25.158 C64.242,25.41 63.762,25.584 63.126,25.68 C62.49,25.776 61.62,25.824 60.516,25.824 C60.396,25.824 60.276,25.782 60.156,25.698 C60.036,25.614 59.976,25.404 59.976,25.068 L59.976,25.068 L59.976,18.768 C59.976,18.168 60.012,17.7 60.084,17.364 C60.156,17.028 60.3,16.782 60.516,16.626 C60.732,16.47 61.026,16.38 61.398,16.356 C61.77,16.332 62.268,16.32 62.892,16.32 L62.892,16.32 L65.052,16.32 C65.892,16.344 66.57,16.392 67.086,16.464 C67.602,16.536 68.01,16.71 68.31,16.986 C68.61,17.262 68.844,17.664 69.012,18.192 C69.18,18.72 69.348,19.452 69.516,20.388 C69.54,20.532 69.618,20.628 69.75,20.676 C69.882,20.724 70.02,20.742 70.164,20.73 C70.308,20.718 70.434,20.682 70.542,20.622 C70.65,20.562 70.704,20.484 70.704,20.388 C70.632,19.452 70.596,18.444 70.596,17.364 L70.596,17.364 L70.596,16.356 C70.596,16.02 70.62,15.72 70.668,15.456 C70.716,15.12 70.65,14.928 70.47,14.88 C70.29,14.832 70.104,14.808 69.912,14.808 L69.912,14.808 L56.988,14.808 C56.124,14.808 55.368,14.784 54.72,14.736 C54.072,14.688 53.34,14.664 52.524,14.664 C52.38,14.664 52.272,14.724 52.2,14.844 C52.128,14.964 52.092,15.096 52.092,15.24 C52.092,15.384 52.128,15.516 52.2,15.636 C52.272,15.756 52.38,15.816 52.524,15.816 C52.788,15.84 53.064,15.876 53.352,15.924 C53.64,15.972 53.916,16.032 54.18,16.104 C54.612,16.224 54.954,16.44 55.206,16.752 C55.458,17.064 55.644,17.436 55.764,17.868 C55.884,18.3 55.962,18.768 55.998,19.272 C56.034,19.776 56.052,20.292 56.052,20.82 L56.052,20.82 L56.052,34.68 C56.052,35.28 55.986,35.772 55.854,36.156 C55.722,36.54 55.524,36.858 55.26,37.11 C54.996,37.362 54.66,37.554 54.252,37.686 C53.844,37.818 53.352,37.92 52.776,37.992 C52.56,38.016 52.404,38.094 52.308,38.226 C52.212,38.358 52.176,38.502 52.2,38.658 C52.224,38.814 52.284,38.946 52.38,39.054 C52.476,39.162 52.62,39.216 52.812,39.216 Z M74.412,39.216 C75.108,39.168 75.894,39.12 76.77,39.072 C77.646,39.024 78.54,39 79.452,39 L79.452,39 L92.52,39 C92.88,39 93.108,38.934 93.204,38.802 C93.3,38.67 93.348,38.568 93.348,38.496 C93.324,37.584 93.36,36.69 93.456,35.814 C93.552,34.938 93.66,33.996 93.78,32.988 C93.804,32.868 93.75,32.772 93.618,32.7 C93.486,32.628 93.336,32.592 93.168,32.592 C93,32.592 92.844,32.616 92.7,32.664 C92.556,32.712 92.472,32.808 92.448,32.952 C92.352,33.672 92.226,34.266 92.07,34.734 C91.914,35.202 91.716,35.592 91.476,35.904 C91.236,36.216 90.942,36.468 90.594,36.66 C90.246,36.852 89.832,37.032 89.352,37.2 C89.088,37.296 88.704,37.368 88.2,37.416 C87.696,37.464 87.156,37.488 86.58,37.488 C86.124,37.488 85.686,37.47 85.266,37.434 C84.846,37.398 84.468,37.344 84.132,37.272 C83.7,37.176 83.328,37.026 83.016,36.822 C82.704,36.618 82.44,36.342 82.224,35.994 C82.008,35.646 81.846,35.202 81.738,34.662 C81.63,34.122 81.576,33.468 81.576,32.7 L81.576,32.7 L81.576,27.984 C81.576,27.72 81.636,27.546 81.756,27.462 C81.876,27.378 81.996,27.336 82.116,27.336 C83.22,27.336 84.09,27.378 84.726,27.462 C85.362,27.546 85.842,27.702 86.166,27.93 C86.49,28.158 86.706,28.488 86.814,28.92 C86.922,29.352 87.012,29.916 87.084,30.612 C87.108,30.756 87.18,30.858 87.3,30.918 C87.42,30.978 87.552,31.014 87.696,31.026 C87.84,31.038 87.972,31.014 88.092,30.954 C88.212,30.894 88.272,30.804 88.272,30.684 C88.272,29.844 88.236,29.13 88.164,28.542 C88.092,27.954 88.056,27.3 88.056,26.58 C88.056,26.148 88.068,25.77 88.092,25.446 C88.116,25.122 88.14,24.81 88.164,24.51 L88.164,24.51 L88.236,23.61 C88.26,23.31 88.272,22.968 88.272,22.584 C88.272,22.44 88.212,22.332 88.092,22.26 C87.972,22.188 87.84,22.152 87.696,22.152 C87.552,22.152 87.42,22.188 87.3,22.26 C87.18,22.332 87.108,22.44 87.084,22.584 C87.012,23.232 86.922,23.76 86.814,24.168 C86.706,24.576 86.49,24.906 86.166,25.158 C85.842,25.41 85.362,25.584 84.726,25.68 C84.09,25.776 83.22,25.824 82.116,25.824 C81.996,25.824 81.876,25.782 81.756,25.698 C81.636,25.614 81.576,25.404 81.576,25.068 L81.576,25.068 L81.576,18.768 C81.576,18.168 81.612,17.7 81.684,17.364 C81.756,17.028 81.9,16.782 82.116,16.626 C82.332,16.47 82.626,16.38 82.998,16.356 C83.37,16.332 83.868,16.32 84.492,16.32 L84.492,16.32 L86.652,16.32 C87.492,16.344 88.17,16.392 88.686,16.464 C89.202,16.536 89.61,16.71 89.91,16.986 C90.21,17.262 90.444,17.664 90.612,18.192 C90.78,18.72 90.948,19.452 91.116,20.388 C91.14,20.532 91.218,20.628 91.35,20.676 C91.482,20.724 91.62,20.742 91.764,20.73 C91.908,20.718 92.034,20.682 92.142,20.622 C92.25,20.562 92.304,20.484 92.304,20.388 C92.232,19.452 92.196,18.444 92.196,17.364 L92.196,17.364 L92.196,16.356 C92.196,16.02 92.22,15.72 92.268,15.456 C92.316,15.12 92.25,14.928 92.07,14.88 C91.89,14.832 91.704,14.808 91.512,14.808 L91.512,14.808 L78.588,14.808 C77.724,14.808 76.968,14.784 76.32,14.736 C75.672,14.688 74.94,14.664 74.124,14.664 C73.98,14.664 73.872,14.724 73.8,14.844 C73.728,14.964 73.692,15.096 73.692,15.24 C73.692,15.384 73.728,15.516 73.8,15.636 C73.872,15.756 73.98,15.816 74.124,15.816 C74.388,15.84 74.664,15.876 74.952,15.924 C75.24,15.972 75.516,16.032 75.78,16.104 C76.212,16.224 76.554,16.44 76.806,16.752 C77.058,17.064 77.244,17.436 77.364,17.868 C77.484,18.3 77.562,18.768 77.598,19.272 C77.634,19.776 77.652,20.292 77.652,20.82 L77.652,20.82 L77.652,34.68 C77.652,35.28 77.586,35.772 77.454,36.156 C77.322,36.54 77.124,36.858 76.86,37.11 C76.596,37.362 76.26,37.554 75.852,37.686 C75.444,37.818 74.952,37.92 74.376,37.992 C74.16,38.016 74.004,38.094 73.908,38.226 C73.812,38.358 73.776,38.502 73.8,38.658 C73.824,38.814 73.884,38.946 73.98,39.054 C74.076,39.162 74.22,39.216 74.412,39.216 Z M117.38,39.456 L117.558,39.45 C117.738,39.438 117.894,39.408 118.026,39.36 C118.158,39.312 118.224,39.252 118.224,39.18 L118.224,39.18 L118.224,22.08 C118.224,21.504 118.242,20.928 118.278,20.352 C118.314,19.776 118.368,19.236 118.44,18.732 C118.512,18.228 118.608,17.832 118.728,17.544 C118.896,17.136 119.052,16.83 119.196,16.626 C119.34,16.422 119.502,16.272 119.682,16.176 C119.862,16.08 120.078,16.02 120.33,15.996 C120.582,15.972 120.924,15.936 121.356,15.888 C121.5,15.888 121.608,15.822 121.68,15.69 C121.752,15.558 121.788,15.42 121.788,15.276 C121.788,15.132 121.752,15 121.68,14.88 C121.608,14.76 121.5,14.7 121.356,14.7 C120.588,14.7 119.898,14.736 119.286,14.808 C118.674,14.88 118.056,14.916 117.432,14.916 C116.76,14.916 116.094,14.88 115.434,14.808 C114.774,14.736 114.156,14.7 113.58,14.7 C113.436,14.7 113.34,14.76 113.292,14.88 C113.244,15 113.22,15.132 113.22,15.276 C113.22,15.42 113.25,15.558 113.31,15.69 C113.37,15.822 113.46,15.888 113.58,15.888 C114.012,15.936 114.378,15.978 114.678,16.014 C114.978,16.05 115.23,16.122 115.434,16.23 C115.638,16.338 115.8,16.494 115.92,16.698 C116.04,16.902 116.16,17.184 116.28,17.544 C116.376,17.832 116.442,18.228 116.478,18.732 C116.514,19.236 116.544,19.77 116.568,20.334 C116.592,20.898 116.604,21.468 116.604,22.044 L116.604,22.044 L116.604,32.268 C116.604,32.7 116.46,32.76 116.172,32.448 L116.172,32.448 L101.664,15.204 C101.568,15.084 101.256,14.988 100.728,14.916 C100.2,14.844 99.612,14.79 98.964,14.754 C98.316,14.718 97.68,14.7 97.056,14.7 L97.056,14.7 L95.688,14.7 C95.544,14.7 95.442,14.76 95.382,14.88 C95.322,15 95.292,15.132 95.292,15.276 C95.292,15.42 95.322,15.558 95.382,15.69 C95.442,15.822 95.532,15.888 95.652,15.888 C96.876,16.008 97.734,16.314 98.226,16.806 C98.718,17.298 98.964,17.94 98.964,18.732 L98.964,18.732 L98.964,34.212 C98.964,35.076 98.91,35.748 98.802,36.228 C98.694,36.708 98.514,37.062 98.262,37.29 C98.01,37.518 97.674,37.674 97.254,37.758 C96.834,37.842 96.312,37.92 95.688,37.992 C95.544,38.016 95.436,38.088 95.364,38.208 C95.292,38.328 95.262,38.46 95.274,38.604 C95.286,38.748 95.328,38.88 95.4,39 C95.472,39.12 95.568,39.18 95.688,39.18 C96.168,39.18 96.762,39.138 97.47,39.054 C98.178,38.97 98.988,38.928 99.9,38.928 C100.764,38.928 101.514,38.97 102.15,39.054 C102.786,39.138 103.368,39.18 103.896,39.18 C104.04,39.18 104.148,39.12 104.22,39 C104.292,38.88 104.334,38.748 104.346,38.604 C104.358,38.46 104.328,38.328 104.256,38.208 C104.184,38.088 104.076,38.016 103.932,37.992 C103.38,37.92 102.9,37.842 102.492,37.758 C102.084,37.674 101.742,37.518 101.466,37.29 C101.19,37.062 100.986,36.708 100.854,36.228 C100.722,35.748 100.656,35.076 100.656,34.212 L100.656,34.212 L100.656,21.108 C100.656,20.796 100.704,20.634 100.8,20.622 C100.896,20.61 101.04,20.712 101.232,20.928 L101.232,20.928 L116.712,39.288 C116.76,39.36 116.868,39.408 117.036,39.432 C117.204,39.456 117.378,39.462 117.558,39.45 L117.38,39.456 Z M139.968,39.252 C140.136,39.252 140.262,39.192 140.346,39.072 C140.43,38.952 140.472,38.82 140.472,38.676 C140.472,38.532 140.43,38.394 140.346,38.262 C140.262,38.13 140.148,38.052 140.004,38.028 C139.284,37.956 138.696,37.866 138.24,37.758 C137.784,37.65 137.43,37.476 137.178,37.236 C136.926,36.996 136.752,36.654 136.656,36.21 C136.56,35.766 136.512,35.148 136.512,34.356 L136.512,34.356 L136.512,29.28 L141.696,20.388 C141.96,19.932 142.278,19.404 142.65,18.804 C143.022,18.204 143.448,17.664 143.928,17.184 C144.696,16.392 145.524,15.96 146.412,15.888 C146.532,15.888 146.628,15.822 146.7,15.69 C146.772,15.558 146.814,15.42 146.826,15.276 C146.838,15.132 146.814,15 146.754,14.88 C146.694,14.76 146.592,14.7 146.448,14.7 C145.752,14.7 145.11,14.736 144.522,14.808 C143.934,14.88 143.364,14.916 142.812,14.916 C142.14,14.916 141.474,14.88 140.814,14.808 C140.154,14.736 139.38,14.7 138.492,14.7 C138.372,14.7 138.276,14.76 138.204,14.88 C138.132,15 138.096,15.132 138.096,15.276 C138.096,15.42 138.126,15.552 138.186,15.672 C138.246,15.792 138.348,15.864 138.492,15.888 C138.852,15.936 139.182,15.978 139.482,16.014 C139.782,16.05 140.04,16.122 140.256,16.23 C140.472,16.338 140.634,16.494 140.742,16.698 C140.85,16.902 140.904,17.184 140.904,17.544 C140.904,17.88 140.778,18.378 140.526,19.038 C140.274,19.698 139.926,20.472 139.482,21.36 C139.038,22.248 138.522,23.214 137.934,24.258 C137.346,25.302 136.716,26.364 136.044,27.444 C135.9,27.684 135.78,27.774 135.684,27.714 C135.588,27.654 135.504,27.564 135.432,27.444 L135.432,27.444 L131.148,19.272 C130.692,18.408 130.464,17.748 130.464,17.292 C130.464,16.884 130.65,16.572 131.022,16.356 C131.394,16.14 132.036,15.984 132.948,15.888 C133.092,15.864 133.206,15.792 133.29,15.672 C133.374,15.552 133.416,15.42 133.416,15.276 C133.416,15.132 133.38,15 133.308,14.88 C133.236,14.76 133.116,14.7 132.948,14.7 C132.108,14.7 131.244,14.736 130.356,14.808 C129.468,14.88 128.58,14.916 127.692,14.916 C126.876,14.916 126.048,14.88 125.208,14.808 C124.368,14.736 123.468,14.7 122.508,14.7 C122.388,14.7 122.292,14.76 122.22,14.88 C122.148,15 122.112,15.132 122.112,15.276 C122.112,15.42 122.148,15.552 122.22,15.672 C122.292,15.792 122.388,15.864 122.508,15.888 C123.132,15.984 123.654,16.068 124.074,16.14 C124.494,16.212 124.86,16.416 125.172,16.752 C125.46,17.064 125.832,17.562 126.288,18.246 C126.744,18.93 127.194,19.638 127.638,20.37 C128.082,21.102 128.478,21.78 128.826,22.404 C129.174,23.028 129.396,23.436 129.492,23.628 L129.492,23.628 L132.588,29.64 L132.588,34.356 C132.588,35.148 132.546,35.766 132.462,36.21 C132.378,36.654 132.21,36.996 131.958,37.236 C131.706,37.476 131.358,37.65 130.914,37.758 C130.47,37.866 129.876,37.956 129.132,38.028 C128.988,38.052 128.88,38.13 128.808,38.262 C128.736,38.394 128.7,38.532 128.7,38.676 C128.7,38.82 128.736,38.952 128.808,39.072 C128.88,39.192 128.988,39.252 129.132,39.252 C129.924,39.252 130.806,39.198 131.778,39.09 C132.75,38.982 133.692,38.928 134.604,38.928 C135.468,38.928 136.338,38.982 137.214,39.09 C138.09,39.198 139.008,39.252 139.968,39.252 Z" id="GREENY" fill="#A84E4D" fill-rule="nonzero"></path>
                <path d="M170.59799,1 L190,1 L190,20.4020101 C190,31.225681 181.225681,40 170.40201,40 L151,40 L151,20.5979899 C151,9.77431897 159.774319,1 170.59799,1 Z" id="Shape" fill="#71505F" fill-rule="nonzero"></path>
                <text id="5" font-family="Kefa-Regular, Kefa" font-size="37" font-weight="normal" fill="#FFFFFF">
                    <tspan x="159" y="34">5</tspan>
                </text>
            </g>
        </g>
    </g>
</svg>