<?xml version="1.0" encoding="UTF-8"?>
<svg width="81px" height="162px" viewBox="0 0 81 162" version="1.1" xmlns="http://www.w3.org/2000/svg" xmlns:xlink="http://www.w3.org/1999/xlink">
    <!-- Generator: Sketch 51.3 (57544) - http://www.bohemiancoding.com/sketch -->
    <title>owl3</title>
    <desc>Created with Sketch.</desc>
    <defs>
        <rect id="path-1" x="0" y="0" width="81" height="162"></rect>
    </defs>
    <g id="Page-1" stroke="none" stroke-width="1" fill="none" fill-rule="evenodd">
        <g id="owl3">
            <mask id="mask-2" fill="white">
                <use xlink:href="#path-1"></use>
            </mask>
            <g id="Mask"></g>
            <g mask="url(#mask-2)" fill-rule="nonzero">
                <g transform="translate(-81.000000, 0.000000)">
                    <path d="M80.9988155,0 C125.735197,0 162,36.265333 162,81.002369 C162,125.734667 125.735197,162 80.9988155,162 C36.2648027,162 0,125.734667 0,81.002369 C0,36.265333 36.2648027,0 80.9988155,0" id="Fill-315" fill="#036D4F"></path>
                    <path d="M81,30 C109.166768,30 132,52.8332324 132,81.0023757 C132,109.166768 109.166768,132 81,132 C52.8356081,132 30,109.166768 30,81.0023757 C30,52.8332324 52.8356081,30 81,30" id="Fill-316" fill="#1A1919"></path>
                    <path d="M80.9988173,62 C91.49169,62 100,70.5064741 100,81.0023655 C100,91.4935259 91.49169,100 80.9988173,100 C70.50831,100 62,91.4935259 62,81.0023655 C62,70.5064741 70.50831,62 80.9988173,62" id="Fill-317" fill="#5CBE29"></path>
                </g>
            </g>
        </g>
    </g>
</svg>