<?xml version="1.0" encoding="UTF-8"?>
<svg width="76px" height="76px" viewBox="0 0 76 76" version="1.1" xmlns="http://www.w3.org/2000/svg" xmlns:xlink="http://www.w3.org/1999/xlink">
    <!-- Generator: Sketch 63.1 (92452) - https://sketch.com -->
    <title>owl2</title>
    <desc>Created with Sketch.</desc>
    <g id="Page-1" stroke="none" stroke-width="1" fill="none" fill-rule="evenodd">
        <g id="2" transform="translate(-43.000000, -709.000000)">
            <g id="owl2" transform="translate(43.000000, 709.000000)">
                <path d="M37.9730021,2.13162821e-14 C58.9459032,2.13162821e-14 75.9473042,17.0014009 75.9473042,37.9730021 C75.9473042,58.9459032 58.9459032,75.9473042 37.9730021,75.9473042 C17.0014009,75.9473042 -3.55271368e-14,58.9459032 -3.55271368e-14,37.9730021 C-3.55271368e-14,17.0014009 17.0014009,2.13162821e-14 37.9730021,2.13162821e-14" id="Fill-319" fill="#F6E4D4"></path>
                <path d="M37.9730021,14.1323008 C51.1407028,14.1323008 61.8150034,24.8066014 61.8150034,37.9730021 C61.8150034,51.1407028 51.1407028,61.8150034 37.9730021,61.8150034 C24.8066014,61.8150034 14.1323008,51.1407028 14.1323008,37.9730021 C14.1323008,24.8066014 24.8066014,14.1323008 37.9730021,14.1323008" id="Fill-320" fill="#DE5316"></path>
                <path d="M37.9730021,29.0537016 C42.9000024,29.0537016 46.8936026,33.0473018 46.8936026,37.9743021 C46.8936026,42.9000024 42.9000024,46.8936026 37.9730021,46.8936026 C33.0473018,46.8936026 29.0524016,42.9000024 29.0524016,37.9743021 C29.0524016,33.0473018 33.0473018,29.0537016 37.9730021,29.0537016" id="Fill-321" fill="#FFFFFF"></path>
            </g>
        </g>
    </g>
</svg>