<?xml version="1.0" encoding="UTF-8"?>
<svg width="759px" height="766px" viewBox="0 0 759 766" version="1.1" xmlns="http://www.w3.org/2000/svg" xmlns:xlink="http://www.w3.org/1999/xlink">
    <!-- Generator: Sketch 51.3 (57544) - http://www.bohemiancoding.com/sketch -->
    <title>R-one</title>
    <desc>Created with Sketch.</desc>
    <defs></defs>
    <g id="Page-1" stroke="none" stroke-width="1" fill="none" fill-rule="evenodd">
        <g id="2" transform="translate(0.000000, -1491.000000)" fill-rule="nonzero">
            <g id="R-one" transform="translate(-313.000000, 1479.000000)">
                <path d="M916,247 C854.14464,247 804,196.85536 804,135 L916,135 L916,247 Z" id="Shape" fill="#FFC700"></path>
                <path d="M402,606 C363.891706,606 333,575.108294 333,537 L402,537 L402,606 Z" id="Shape" fill="#6ED47C"></path>
                <path d="M1028,79 L972,79 C941.07232,79 916,104.072096 916,135 L972,135 C1002.92768,135 1028,109.927904 1028,79 Z" id="Shape" fill="#FFC700"></path>
                <path d="M972,79 C941.07232,79 916,53.9279114 916,23 L972,23.0000049 C1002.92768,23.0000076 1028,48.0721051 1028,79 L972,79 Z" id="p-o" fill="#FF743C"></path>
                <path d="M424,325 L480,325 C510.92768,325 536,299.92768 536,269 L480,269 C449.07232,269 424,294.07232 424,325 Z" id="Shape" fill="#6ED47C"></path>
                <path d="M429,54 L429,161.5 C429,220.8701 476.90604,269 536,269 L536,161.5 C536,102.1299 488.09396,54 429,54 Z" id="Shape" fill="#FF743C"></path>
                <path d="M482,162 L482,215.229535 C482,244.925887 506.17688,269 536,269 L536,215.770465 C536,186.073037 511.82312,162 482,162 Z" id="Shape" fill="#2D3652"></path>
                <path d="M499,489 L451.242661,489 C424.599204,489 403,510.49056 403,537 L450.757339,537 C477.401761,537 499,515.50944 499,489 Z" id="Shape" fill="#2D3652"></path>
                <path d="M499,585 L546.259867,585 C572.625788,585 594,606.04284 594,632 L546.740133,632 C520.373257,632 499,610.95716 499,585 Z" id="Shape" fill="#6ED47C"></path>
                <g id="g-p" transform="translate(899.000000, 598.000000)">
                    <path d="M0,148 L0,74 C0,33.13128 32.68356,0 73,0 L73,74 C73,114.86872 40.31644,148 0,148 Z" id="Shape" fill="#6ED47C"></path>
                    <path d="M27,95 L27,47.7396531 C27,21.3739975 48.04284,0 74,0 L74,47.2603469 C74,73.6260025 52.95716,95 27,95 Z" id="Shape" fill="#2D3652"></path>
                </g>
                <g id="owlr" transform="translate(671.000000, 671.000000)">
                    <path d="M0,53.5 C0,23.95302 23.95302,0 53.5,0 C83.04698,0 107,23.95302 107,53.5 C107,83.04698 83.04698,107 53.5,107 C23.95302,107 0,83.04698 0,53.5 Z" id="Shape" fill="#FF743C"></path>
                    <path d="M24,53.5 C24,37.2079883 37.2079883,24 53.5,24 C69.7920117,24 83,37.2079883 83,53.5 C83,69.7920117 69.7920117,83 53.5,83 C37.2079883,83 24,69.7920117 24,53.5 Z" id="Shape" fill="#2D3652"></path>
                </g>
                <path d="M683,390 C683,367.908 700.908,350 723,350 C745.092,350 763,367.908 763,390 C763,412.092 745.092,430 723,430 C700.908,430 683,412.092 683,390 Z" id="Shape" fill="#FF743C"></path>
                <path d="M703,389.5 C703,378.178533 712.178533,369 723.5,369 C734.821467,369 744,378.178533 744,389.5 C744,400.821467 734.821467,410 723.5,410 C712.178533,410 703,400.821467 703,389.5 Z" id="Shape" fill="#FFC700"></path>
                <path d="M333,516.5 C333,505.178533 342.178533,496 353.5,496 C364.821467,496 374,505.178533 374,516.5 C374,527.821467 364.821467,537 353.5,537 C342.178533,537 333,527.821467 333,516.5 Z" id="Shape" fill="#FF743C"></path>
                <path d="M805,73 C805,39.31092 777.68908,12 744,12 C710.31092,12 683,39.31092 683,73 C683,106.68908 710.31092,134 744,134 L805,134 L805,73 Z" id="Shape" fill="#D5E155"></path>
                <path d="M805,102.499389 C805,85.1029991 790.897001,71 773.499389,71 C756.102999,71 742,85.1029991 742,102.499389 C742,119.897001 756.102999,134 773.499389,134 L805,134 L805,102.499389 Z" id="Shape" fill="#FF743C"></path>
                <path d="M268,202 C268,164.99724 297.99724,135 335,135 C372.00276,135 402,164.99724 402,202 C402,239.00276 372.00276,269 335,269 C297.99724,269 268,239.00276 268,202 Z" id="Shape" fill="#FFC700"></path>
                <path d="M299,201 C299,180.565951 315.565951,164 336,164 C356.434049,164 373,180.565951 373,201 C373,221.434049 356.434049,238 336,238 C315.565951,238 299,221.434049 299,201 Z" id="Shape" fill="#2D3652"></path>
                <path d="M1072,413 C1004.62062,413 950,358.37816 950,291 L1072,291 L1072,413 Z" id="Shape" fill="#6ED47C" transform="translate(1011.000000, 352.000000) scale(-1, -1) rotate(-90.000000) translate(-1011.000000, -352.000000) "></path>
                <path d="M1072,413 C1037.20547,413 1009,384.794529 1009,350 L1072,350 L1072,413 Z" id="Shape" fill="#D5E155" transform="translate(1040.500000, 381.500000) scale(-1, -1) rotate(-90.000000) translate(-1040.500000, -381.500000) "></path>
                <path d="M972,621 C972,593.386 994.386,571 1022,571 C1049.614,571 1072,593.386 1072,621 C1072,648.614 1049.614,671 1022,671 C994.386,671 972,648.614 972,621 Z" id="Shape" fill="#FF743C" transform="translate(1022.000000, 621.000000) scale(-1, -1) rotate(-90.000000) translate(-1022.000000, -621.000000) "></path>
                <path d="M994,621 C994,605.536396 1006.5364,593 1022,593 C1037.4636,593 1050,605.536396 1050,621 C1050,636.463604 1037.4636,649 1022,649 C1006.5364,649 994,636.463604 994,621 Z" id="Shape" fill="#2D3652" transform="translate(1022.000000, 621.000000) scale(-1, -1) rotate(-90.000000) translate(-1022.000000, -621.000000) "></path>
            </g>
        </g>
    </g>
</svg>