<?xml version="1.0" encoding="UTF-8"?>
<svg width="759px" height="766px" viewBox="0 0 759 766" version="1.1" xmlns="http://www.w3.org/2000/svg" xmlns:xlink="http://www.w3.org/1999/xlink">
    <!-- Generator: Sketch 51.3 (57544) - http://www.bohemiancoding.com/sketch -->
    <title>Group 25</title>
    <desc>Created with Sketch.</desc>
    <defs></defs>
    <g id="Page-1" stroke="none" stroke-width="1" fill="none" fill-rule="evenodd">
        <g id="2" transform="translate(0.000000, -1491.000000)" fill-rule="nonzero">
            <g id="Group-25" transform="translate(-313.000000, 1479.000000)">
                <g id="Group-24">
                    <path d="M972,79 C941.07232,79 916,53.9279114 916,23 L972,23.0000049 C1002.92768,23.0000076 1028,48.0721051 1028,79 L972,79 Z" id="p-o" fill="#FF743C"></path>
                    <g id="R-one">
                        <path d="M916,247 C854.14464,247 804,196.85536 804,135 L916,135 L916,247 Z" id="Shape" fill="#FFC700"></path>
                        <path d="M402,606 C363.891706,606 333,575.108294 333,537 L402,537 L402,606 Z" id="Shape" fill="#6ED47C"></path>
                        <path d="M1028,79 L972,79 C941.07232,79 916,104.072096 916,135 L972,135 C1002.92768,135 1028,109.927904 1028,79 Z" id="Shape" fill="#FFC700"></path>
                        <path d="M424,325 L480,325 C510.92768,325 536,299.92768 536,269 L480,269 C449.07232,269 424,294.07232 424,325 Z" id="Shape" fill="#2D3652"></path>
                        <path d="M368,381 L424,381 C454.92768,381 480,355.92768 480,325 L424,325 C393.07232,325 368,350.07232 368,381 Z" id="Shape" fill="#6ED47C"></path>
                        <path d="M429,54 L429,161.5 C429,220.8701 476.90604,269 536,269 L536,161.5 C536,102.1299 488.09396,54 429,54 Z" id="Shape" fill="#FF743C"></path>
                        <path d="M482,162 L482,215.229535 C482,244.925887 506.17688,269 536,269 L536,215.770465 C536,186.073037 511.82312,162 482,162 Z" id="Shape" fill="#2D3652"></path>
                        <path d="M805,403 L710.5,403 C658.30954,403 616,445.08568 616,497 L710.5,497 C762.69046,497 805,454.91432 805,403 Z" id="Shape" fill="#F0F1F1"></path>
                        <path d="M499,489 L451.242661,489 C424.599204,489 403,510.49056 403,537 L450.757339,537 C477.401761,537 499,515.50944 499,489 Z" id="Shape" fill="#2D3652"></path>
                        <path d="M402,403 L267.5,403 C193.21834,403 133,462.99448 133,537 L267.5,537 C341.78166,537 402,477.00552 402,403 Z" id="Shape" fill="#F0F1F1"></path>
                        <path d="M403,537 L498.5,537 C551.24274,537 594,579.5334 594,632 L498.5,632 C445.75726,632 403,589.4666 403,537 Z" id="Shape" fill="#2D3652"></path>
                        <path d="M499,585 L546.259867,585 C572.625788,585 594,606.04284 594,632 L546.740133,632 C520.373257,632 499,610.95716 499,585 Z" id="Shape" fill="#6ED47C"></path>
                        <path d="M765,537 C765,514.908 782.908,497 805,497 C827.092,497 845,514.908 845,537 C845,559.092 827.092,577 805,577 C782.908,577 765,559.092 765,537 Z" id="Shape" fill="#FF743C"></path>
                        <path d="M785,536.5 C785,525.178533 794.178533,516 805.5,516 C816.821467,516 826,525.178533 826,536.5 C826,547.821467 816.821467,557 805.5,557 C794.178533,557 785,547.821467 785,536.5 Z" id="Shape" fill="#FFC700"></path>
                        <path d="M605,367.5 C605,356.178533 614.178533,347 625.5,347 C636.821467,347 646,356.178533 646,367.5 C646,378.821467 636.821467,388 625.5,388 C614.178533,388 605,378.821467 605,367.5 Z" id="Shape" fill="#FF743C"></path>
                        <path d="M950,347.5 C950,316.84846 925.15154,292 894.5,292 C863.84846,292 839,316.84846 839,347.5 C839,378.15154 863.84846,403 894.5,403 L950,403 L950,347.5 Z" id="Shape" fill="#FF743C"></path>
                        <path d="M950,374.499447 C950,358.759856 937.240144,346 921.499447,346 C905.759856,346 893,358.759856 893,374.499447 C893,390.240144 905.759856,403 921.499447,403 L950,403 L950,374.499447 Z" id="Shape" fill="#FFC700"></path>
                        <path d="M805,73 C805,39.31092 777.68908,12 744,12 C710.31092,12 683,39.31092 683,73 C683,106.68908 710.31092,134 744,134 L805,134 L805,73 Z" id="Shape" fill="#D5E155"></path>
                        <path d="M805,102.499389 C805,85.1029991 790.897001,71 773.499389,71 C756.102999,71 742,85.1029991 742,102.499389 C742,119.897001 756.102999,134 773.499389,134 L805,134 L805,102.499389 Z" id="Shape" fill="#FF743C"></path>
                        <path d="M268,202 C268,164.99724 297.99724,135 335,135 C372.00276,135 402,164.99724 402,202 C402,239.00276 372.00276,269 335,269 C297.99724,269 268,239.00276 268,202 Z" id="Shape" fill="#FFC700"></path>
                        <path d="M299,201 C299,180.565951 315.565951,164 336,164 C356.434049,164 373,180.565951 373,201 C373,221.434049 356.434049,238 336,238 C315.565951,238 299,221.434049 299,201 Z" id="Shape" fill="#2D3652"></path>
                        <path d="M1072,530 C1004.62184,530 950,472.69184 950,402 L1072,402 L1072,530 Z" id="Shape" fill="#F0F1F1" transform="translate(1011.000000, 466.000000) scale(-1, -1) rotate(-180.000000) translate(-1011.000000, -466.000000) "></path>
                        <path d="M1072,403 C1004.62062,403 950,348.37816 950,281 L1072,281 L1072,403 Z" id="Shape" fill="#6ED47C" transform="translate(1011.000000, 342.000000) scale(-1, -1) rotate(-90.000000) translate(-1011.000000, -342.000000) "></path>
                        <path d="M1072,403 C1037.20547,403 1009,374.794529 1009,340 L1072,340 L1072,403 Z" id="Shape" fill="#D5E155" transform="translate(1040.500000, 371.500000) scale(-1, -1) rotate(-90.000000) translate(-1040.500000, -371.500000) "></path>
                        <path d="M972,621 C972,593.386 994.386,571 1022,571 C1049.614,571 1072,593.386 1072,621 C1072,648.614 1049.614,671 1022,671 C994.386,671 972,648.614 972,621 Z" id="Shape" fill="#FF743C" transform="translate(1022.000000, 621.000000) scale(-1, -1) rotate(-90.000000) translate(-1022.000000, -621.000000) "></path>
                        <path d="M994,621 C994,605.536396 1006.5364,593 1022,593 C1037.4636,593 1050,605.536396 1050,621 C1050,636.463604 1037.4636,649 1022,649 C1006.5364,649 994,636.463604 994,621 Z" id="Shape" fill="#2D3652" transform="translate(1022.000000, 621.000000) scale(-1, -1) rotate(-90.000000) translate(-1022.000000, -621.000000) "></path>
                    </g>
                    <g id="g-p" transform="translate(899.000000, 598.000000)">
                        <path d="M0,148 L0,74 C0,33.13128 32.68356,0 73,0 L73,74 C73,114.86872 40.31644,148 0,148 Z" id="Shape" fill="#6ED47C"></path>
                        <path d="M27,95 L27,47.7396531 C27,21.3739975 48.04284,0 74,0 L74,47.2603469 C74,73.6260025 52.95716,95 27,95 Z" id="Shape" fill="#2D3652"></path>
                    </g>
                </g>
                <g id="owlr" transform="translate(671.000000, 671.000000)">
                    <path d="M0,53.5 C0,23.95302 23.95302,0 53.5,0 C83.04698,0 107,23.95302 107,53.5 C107,83.04698 83.04698,107 53.5,107 C23.95302,107 0,83.04698 0,53.5 Z" id="Shape" fill="#FF743C"></path>
                    <path d="M24,53.5 C24,37.2079883 37.2079883,24 53.5,24 C69.7920117,24 83,37.2079883 83,53.5 C83,69.7920117 69.7920117,83 53.5,83 C37.2079883,83 24,69.7920117 24,53.5 Z" id="Shape" fill="#2D3652"></path>
                </g>
            </g>
        </g>
    </g>
</svg>